<svg width="117" height="119" viewBox="0 0 117 119" fill="none" xmlns="http://www.w3.org/2000/svg">
<g id="Ellipse 1" filter="url(#filter0_d_2_5)">
<mask id="path-1-inside-1_2_5" fill="white">
<path d="M109.339 27.5956C102.952 16.8093 93.0517 8.45193 81.235 3.87256C69.4184 -0.70682 56.3756 -1.24099 44.2119 2.35628C32.0482 5.95354 21.4735 13.4723 14.1948 23.6989C6.91611 33.9255 3.35812 46.2632 4.09519 58.7203C4.83226 71.1774 9.82139 83.0271 18.2572 92.3565C26.693 101.686 38.0833 107.951 50.5893 110.139C63.0953 112.328 75.9874 110.313 87.1843 104.42C98.3813 98.5268 107.23 89.099 112.301 77.6586L83.3874 65.2903C81.1466 70.345 77.237 74.5105 72.2899 77.1143C67.3428 79.7181 61.6467 80.6084 56.1212 79.6413C50.5956 78.6742 45.5631 75.9063 41.8359 71.7843C38.1087 67.6623 35.9044 62.4267 35.5787 56.9228C35.2531 51.4189 36.8251 45.9678 40.041 41.4494C43.257 36.931 47.9292 33.609 53.3034 32.0196C58.6777 30.4302 64.4404 30.6662 69.6613 32.6895C74.8822 34.7128 79.2567 38.4053 82.0786 43.171L109.339 27.5956Z"/>
</mask>
<path d="M109.339 27.5956C102.952 16.8093 93.0517 8.45193 81.235 3.87256C69.4184 -0.70682 56.3756 -1.24099 44.2119 2.35628C32.0482 5.95354 21.4735 13.4723 14.1948 23.6989C6.91611 33.9255 3.35812 46.2632 4.09519 58.7203C4.83226 71.1774 9.82139 83.0271 18.2572 92.3565C26.693 101.686 38.0833 107.951 50.5893 110.139C63.0953 112.328 75.9874 110.313 87.1843 104.42C98.3813 98.5268 107.23 89.099 112.301 77.6586L83.3874 65.2903C81.1466 70.345 77.237 74.5105 72.2899 77.1143C67.3428 79.7181 61.6467 80.6084 56.1212 79.6413C50.5956 78.6742 45.5631 75.9063 41.8359 71.7843C38.1087 67.6623 35.9044 62.4267 35.5787 56.9228C35.2531 51.4189 36.8251 45.9678 40.041 41.4494C43.257 36.931 47.9292 33.609 53.3034 32.0196C58.6777 30.4302 64.4404 30.6662 69.6613 32.6895C74.8822 34.7128 79.2567 38.4053 82.0786 43.171L109.339 27.5956Z" fill="#0D2063"/>
<path d="M109.339 27.5956C102.952 16.8093 93.0517 8.45193 81.235 3.87256C69.4184 -0.70682 56.3756 -1.24099 44.2119 2.35628C32.0482 5.95354 21.4735 13.4723 14.1948 23.6989C6.91611 33.9255 3.35812 46.2632 4.09519 58.7203C4.83226 71.1774 9.82139 83.0271 18.2572 92.3565C26.693 101.686 38.0833 107.951 50.5893 110.139C63.0953 112.328 75.9874 110.313 87.1843 104.42C98.3813 98.5268 107.23 89.099 112.301 77.6586L83.3874 65.2903C81.1466 70.345 77.237 74.5105 72.2899 77.1143C67.3428 79.7181 61.6467 80.6084 56.1212 79.6413C50.5956 78.6742 45.5631 75.9063 41.8359 71.7843C38.1087 67.6623 35.9044 62.4267 35.5787 56.9228C35.2531 51.4189 36.8251 45.9678 40.041 41.4494C43.257 36.931 47.9292 33.609 53.3034 32.0196C58.6777 30.4302 64.4404 30.6662 69.6613 32.6895C74.8822 34.7128 79.2567 38.4053 82.0786 43.171L109.339 27.5956Z" stroke="#F5F5F5" stroke-width="6" mask="url(#path-1-inside-1_2_5)"/>
</g>
<defs>
<filter id="filter0_d_2_5" x="-6.10352e-05" y="0" width="116.302" height="119" filterUnits="userSpaceOnUse" color-interpolation-filters="sRGB">
<feFlood flood-opacity="0" result="BackgroundImageFix"/>
<feColorMatrix in="SourceAlpha" type="matrix" values="0 0 0 0 0 0 0 0 0 0 0 0 0 0 0 0 0 0 127 0" result="hardAlpha"/>
<feOffset dy="4"/>
<feGaussianBlur stdDeviation="2"/>
<feComposite in2="hardAlpha" operator="out"/>
<feColorMatrix type="matrix" values="0 0 0 0 0 0 0 0 0 0 0 0 0 0 0 0 0 0 0.25 0"/>
<feBlend mode="normal" in2="BackgroundImageFix" result="effect1_dropShadow_2_5"/>
<feBlend mode="normal" in="SourceGraphic" in2="effect1_dropShadow_2_5" result="shape"/>
</filter>
</defs>
</svg>
